<svg xmlns="http://www.w3.org/2000/svg" width="1309" height="309" viewBox="0 0 1309 309">
  <g id="Logo" transform="translate(-31 -22)">
    <path id="Path_1" data-name="Path 1" d="M185.5,22a154.733,154.733,0,0,0-72.7,18.1V205.5l44.7-54h23l-39,46,44,73h-24l-34-59-15,16v43h-20V53.1a154.525,154.525,0,1,0,93-31.1ZM232,256c24,0,24-25,24-25h21s0,42-45,42c-51,0-48-60-48-60v-3s-3-60,48-60c45,0,45,42,45,42H256s0-25-24-25-28,27-28,43v3C204,229,208,256,232,256Z" fill="#e98c3b"/>
    <g id="Group_1" data-name="Group 1">
      <path id="Path_2" data-name="Path 2" d="M429.5,86.5v41l36-41h25l-34,37,36,56h-24l-25-43-14,15v28h-19v-93Z" fill="#e98c3b"/>
      <path id="Path_3" data-name="Path 3" d="M517.3,112.9v9.2h.4a21.343,21.343,0,0,1,9-8.4,26.654,26.654,0,0,1,11.3-2.6,31.27,31.27,0,0,1,12,2,18.23,18.23,0,0,1,7.4,5.5,20.543,20.543,0,0,1,3.8,8.6,55.227,55.227,0,0,1,1.1,11.2V179H544.1V141.6c0-5.5-.9-9.5-2.6-12.2s-4.7-4-9.1-4c-5,0-8.5,1.5-10.8,4.4-2.2,2.9-3.3,7.8-3.3,14.5V179l-16.6.5v-67Z" fill="#e98c3b"/>
      <path id="Path_4" data-name="Path 4" d="M576.5,131.6a29.921,29.921,0,0,1,17.7-18,41.012,41.012,0,0,1,28.2,0,31.985,31.985,0,0,1,10.8,7,30.287,30.287,0,0,1,6.9,11,41.037,41.037,0,0,1,2.4,14.4,40.079,40.079,0,0,1-2.4,14.3,29.875,29.875,0,0,1-6.9,10.9,30.549,30.549,0,0,1-10.8,7,42.619,42.619,0,0,1-28.2,0,29.241,29.241,0,0,1-10.8-7,30.736,30.736,0,0,1-6.9-10.9,40.471,40.471,0,0,1-2.4-14.3A41.038,41.038,0,0,1,576.5,131.6Zm16.6,22.2a21.37,21.37,0,0,0,2.6,6.8,14.075,14.075,0,0,0,4.9,4.8,17.369,17.369,0,0,0,15.4,0,13.564,13.564,0,0,0,5-4.8,21.369,21.369,0,0,0,2.6-6.8,39.445,39.445,0,0,0,.8-7.7,41.294,41.294,0,0,0-.8-7.8,20.494,20.494,0,0,0-2.6-6.8,13.564,13.564,0,0,0-5-4.8,15.4,15.4,0,0,0-7.7-1.9,14.039,14.039,0,0,0-12.6,6.7,20.492,20.492,0,0,0-2.6,6.8,41.294,41.294,0,0,0-.8,7.8A33.586,33.586,0,0,0,593.1,153.8Z" fill="#e98c3b"/>
      <path id="Path_5" data-name="Path 5" d="M708.5,179.5l-11.7-45h-.3l-11.1,45h-18l-19-66.6,16-.4,12,45,12-45h17l11.6,44h.3l11.2-44h18l-21,67Z" fill="#e98c3b"/>
      <path id="Path_6" data-name="Path 6" d="M774.8,87.6V179H756.6V87.6Z" fill="#e98c3b"/>
      <path id="Path_7" data-name="Path 7" d="M810.9,163.2c2.7,2.6,6.7,4,11.8,4a15.911,15.911,0,0,0,9.5-2.8c2.6-1.8,4.3-3.8,4.9-5.8l14.5,2.9c-2.6,7.9-5,10.7-10.3,14.1s-11.7,5.1-19.2,5.1a37.277,37.277,0,0,1-14.1-2.5,29.1,29.1,0,0,1-10.6-7.1,32.194,32.194,0,0,1-6.7-11,40.132,40.132,0,0,1-2.4-14.1,38.854,38.854,0,0,1,2.4-13.8,31.576,31.576,0,0,1,6.9-11.1,32.527,32.527,0,0,1,10.7-7.4,33.982,33.982,0,0,1,13.8-2.7,31.243,31.243,0,0,1,14.7,3.3,29.322,29.322,0,0,1,10.3,8.8,36.711,36.711,0,0,1,5.8,12.5,47.743,47.743,0,0,1,1.3,14.7H806.5c.1,6,1.6,10.2,4.4,12.9Zm20.5-34.9q-3.3-3.6-9.9-3.6a15.371,15.371,0,0,0-7.2,1.5,14.193,14.193,0,0,0-4.6,3.6,12,12,0,0,0-2.4,4.6,19.6,19.6,0,0,0-.8,4.4H836C835.1,134.2,833.6,130.7,831.4,128.3Z" fill="#e98c3b"/>
      <path id="Path_8" data-name="Path 8" d="M913.1,170.6a17.812,17.812,0,0,1-8.4,7.7,29.448,29.448,0,0,1-11.7,2.4,28.726,28.726,0,0,1-13.1-2.9,26.1,26.1,0,0,1-9.3-7.8,36.01,36.01,0,0,1-5.5-11.3,49.129,49.129,0,0,1-1.9-13.3,43.334,43.334,0,0,1,1.9-12.9,32.919,32.919,0,0,1,5.5-10.9,26.276,26.276,0,0,1,9.2-7.6,27.455,27.455,0,0,1,12.8-2.9,25.464,25.464,0,0,1,11.2,2.5,20.048,20.048,0,0,1,8.4,7.4h.3V87.6h18.2V179H913.4v-8.4Zm-.7-32.7a20.8,20.8,0,0,0-2.6-6.7,14.391,14.391,0,0,0-4.8-4.7,13.988,13.988,0,0,0-7.4-1.8,15,15,0,0,0-7.6,1.8,14.708,14.708,0,0,0-4.9,4.7,23.523,23.523,0,0,0-2.7,6.7,36.183,36.183,0,0,0,.1,15.6,20.867,20.867,0,0,0,2.9,6.8,16.689,16.689,0,0,0,5,4.9,13.774,13.774,0,0,0,7.2,1.9,14.363,14.363,0,0,0,7.5-1.8,13.789,13.789,0,0,0,4.8-4.8,24.028,24.028,0,0,0,2.6-6.8,41.5,41.5,0,0,0,.8-7.9,63.505,63.505,0,0,0-.9-7.9Z" fill="#e98c3b"/>
      <path id="Path_9" data-name="Path 9" d="M1007.2,185.9a21.771,21.771,0,0,1-4.7,9.5,28.511,28.511,0,0,1-10.4,7.5c-4.5,2-10.6,3.1-18.2,3.1a43.169,43.169,0,0,1-9.9-1.2,31.322,31.322,0,0,1-9.2-3.8,21.76,21.76,0,0,1-6.9-6.6,18.912,18.912,0,0,1-3.1-9.7l18.7,2.8c1,2,3,4,4.3,4.4,2.7.7,5.3,2,8.6,2,5.1,0,8.9-1.5,11.2-4.6s3.5-9,3.4-13.6V167h-.3a17.905,17.905,0,0,1-8.4,7.7,26.451,26.451,0,0,1-11.5,2.5,29.506,29.506,0,0,1-12.8-2.6,22.957,22.957,0,0,1-8.8-7.2,30.712,30.712,0,0,1-5.1-10.6,49.038,49.038,0,0,1-1.6-12.9,39.675,39.675,0,0,1,1.9-12.4,30.754,30.754,0,0,1,5.4-10.5,27.189,27.189,0,0,1,8.9-7.2,26.416,26.416,0,0,1,12.2-2.7,25.965,25.965,0,0,1,11.5,2.4c3.3,1.6,6,4.4,8.3,8.2h.3v-8.8h17.3v62a65.926,65.926,0,0,1-1.1,11Zm-24.9-24a13.983,13.983,0,0,0,4.9-4.1,18.571,18.571,0,0,0,2.9-5.8,26.007,26.007,0,0,0,1-6.8,37.889,37.889,0,0,0-.8-7.7,19.7,19.7,0,0,0-2.6-6.5,13.488,13.488,0,0,0-4.7-4.5,15,15,0,0,0-7.4-1.7,13.417,13.417,0,0,0-6.6,1.5,13.178,13.178,0,0,0-4.6,4.2,20.419,20.419,0,0,0-2.7,6,27.619,27.619,0,0,0-.8,7.1,33.533,33.533,0,0,0,.7,7.1A20.631,20.631,0,0,0,964,157a15.2,15.2,0,0,0,4.5,4.6,12.778,12.778,0,0,0,7,1.8,14.8,14.8,0,0,0,6.8-1.5Z" fill="#e98c3b"/>
      <path id="Path_10" data-name="Path 10" d="M1044.6,163.2c2.7,2.6,6.7,4,11.8,4a15.911,15.911,0,0,0,9.5-2.8c2.6-1.8,4.3-3.8,4.9-5.8l14.8,2.9c-2.6,7.9-5.3,10.7-10.6,14.1s-11.7,5.1-19.2,5.1a37.278,37.278,0,0,1-14.1-2.5,29.1,29.1,0,0,1-10.6-7.1,32.192,32.192,0,0,1-6.7-11A40.133,40.133,0,0,1,1022,146a38.854,38.854,0,0,1,2.4-13.8,31.576,31.576,0,0,1,6.9-11.1,32.528,32.528,0,0,1,10.7-7.4,33.982,33.982,0,0,1,13.8-2.7,31.243,31.243,0,0,1,14.7,3.3,29.323,29.323,0,0,1,10.3,8.8,36.711,36.711,0,0,1,5.8,12.5,47.747,47.747,0,0,1,1.3,14.7h-47.7c.2,6,1.7,10.2,4.4,12.9Zm20.5-34.9q-3.3-3.6-9.9-3.6a15.371,15.371,0,0,0-7.2,1.5,14.194,14.194,0,0,0-4.6,3.6,12,12,0,0,0-2.4,4.6,19.611,19.611,0,0,0-.8,4.4h29.6C1068.8,134.2,1067.3,130.7,1065.1,128.3Z" fill="#e98c3b"/>
      <path id="Path_11" data-name="Path 11" d="M1160.4,112a21.709,21.709,0,0,0-4.5-5.1,19.176,19.176,0,0,0-6.1-3.4,21.175,21.175,0,0,0-7.1-1.2,23.837,23.837,0,0,0-11.5,2.6,22.568,22.568,0,0,0-7.7,7,30.011,30.011,0,0,0-4.3,10,49.714,49.714,0,0,0-1.3,11.6,46.378,46.378,0,0,0,1.3,11.2,29.864,29.864,0,0,0,4.3,9.8,22.568,22.568,0,0,0,7.7,7,23,23,0,0,0,11.5,2.6c6.1,0,10.9-1.9,14.4-5.6,3.5-3.8,5.6-8.7,6.3-14.8l19,3.7c-.5,5.7-1.4,7.2-3.5,11.8a37.264,37.264,0,0,1-8.4,11.8,36.425,36.425,0,0,1-12.3,7.4,45.41,45.41,0,0,1-15.5,2.6,47.534,47.534,0,0,1-18.9-3.6,40.147,40.147,0,0,1-14.1-10,45,45,0,0,1-8.8-15,56.7,56.7,0,0,1-3.1-18.6,55.692,55.692,0,0,1,3.1-19,46.4,46.4,0,0,1,8.8-15.3,39.065,39.065,0,0,1,14.1-10.2,45.87,45.87,0,0,1,18.9-3.7,45.053,45.053,0,0,1,14.3,2.2,40.363,40.363,0,0,1,12,6.3,35.148,35.148,0,0,1,8.8,10.3c2.3,4.1,3.7,7.2,3.7,9.2l-18.8,4.9A15.8,15.8,0,0,0,1160.4,112Z" fill="#e98c3b"/>
      <path id="Path_12" data-name="Path 12" d="M1196.5,102.6v-15h18.2v15Zm18.2,10.3V179h-18.2V112.8l18.2.1Z" fill="#e98c3b"/>
      <path id="Path_13" data-name="Path 13" d="M1263.5,112.9V125h-11.1v32.8c0,3.1.5,5.1,1.5,6.1s3.1,1.5,6.1,1.5a27.149,27.149,0,0,0,2.9-.1,25.119,25.119,0,0,0,2.7-.4V179a36.7,36.7,0,0,1-5.1.5c-1.9.1-3.7.1-5.5.1a50.965,50.965,0,0,1-8-.6,20.329,20.329,0,0,1-6.7-2.2,11.982,11.982,0,0,1-4.5-4.7,16.82,16.82,0,0,1-1.7-8.1V125h-11V112.8h11V99.5l18.2-14v27.4Z" fill="#e98c3b"/>
      <path id="Path_14" data-name="Path 14" d="M1303.1,202.7c-3.5,2.3-8.4,3.5-14.6,3.5-1.9,0-3.7-.1-5.6-.2-1.8-.1-5.6-.3-7.4-.5l3-14c1.7.2,13,4,16-3s1.3-12.3.8-13.6l-23.2-62.1h19.3l15,45.3h.3l14.5-45.3H1340l-28.6,78.4c-2.1,5.4-4.8,9.2-8.3,11.5Z" fill="#e98c3b"/>
    </g>
    <g id="Group_2" data-name="Group 2">
      <path id="Path_15" data-name="Path 15" d="M417.9,215.7v50.1h29.9v6.3H410.4V215.7Z" fill="#e98c3b"/>
      <path id="Path_16" data-name="Path 16" d="M483.7,269.5a18.72,18.72,0,0,1-11.5,3.5,20.155,20.155,0,0,1-8.5-1.6,16.708,16.708,0,0,1-6-4.4,19.444,19.444,0,0,1-3.7-6.8,32.922,32.922,0,0,1-1.4-8.6,25.247,25.247,0,0,1,1.4-8.5,19.6,19.6,0,0,1,4-6.7,16.763,16.763,0,0,1,6.1-4.4,17.7,17.7,0,0,1,7.7-1.6,16.7,16.7,0,0,1,9,2.3,18.572,18.572,0,0,1,5.8,5.7,24.156,24.156,0,0,1,3,7.6,30.2,30.2,0,0,1,.7,7.8H459.7a17,17,0,0,0,.6,5.1,11.947,11.947,0,0,0,2.3,4.3,13.549,13.549,0,0,0,4,3,14.63,14.63,0,0,0,5.8,1.1,11.83,11.83,0,0,0,7-2,9.624,9.624,0,0,0,3.6-6h6.6c-.9,4.5-2.8,7.9-5.9,10.2Zm-1.6-26.2a13.09,13.09,0,0,0-2.4-3.7,11.491,11.491,0,0,0-8.2-3.3,11.933,11.933,0,0,0-4.7.9,10.142,10.142,0,0,0-3.6,2.5,13.09,13.09,0,0,0-2.4,3.7,13.425,13.425,0,0,0-1,4.5h23.5a16.35,16.35,0,0,0-1.2-4.6Z" fill="#e98c3b"/>
      <path id="Path_17" data-name="Path 17" d="M535,272a9.516,9.516,0,0,1-4.8,1,5.593,5.593,0,0,1-4.1-1.5q-1.5-1.5-1.5-4.8a16.4,16.4,0,0,1-6.4,4.8,20.581,20.581,0,0,1-7.9,1.5,23.279,23.279,0,0,1-5.3-.6,11.4,11.4,0,0,1-4.3-2,9.913,9.913,0,0,1-2.9-3.5,11.891,11.891,0,0,1-1.1-5.3,12.039,12.039,0,0,1,1.2-5.7,9.906,9.906,0,0,1,3.1-3.6,16.251,16.251,0,0,1,4.4-2.1,47.035,47.035,0,0,1,5.1-1.2,52.4,52.4,0,0,1,5.3-.8,24.806,24.806,0,0,0,4.4-.8,6.07,6.07,0,0,0,3-1.5,3.841,3.841,0,0,0,1.1-2.9,7.382,7.382,0,0,0-.8-3.6,6.26,6.26,0,0,0-5-3,17.2,17.2,0,0,0-3.2-.2,14.073,14.073,0,0,0-7.1,1.6c-1.9,1.1-2.9,3.1-3.1,6.1h-6.7a13.741,13.741,0,0,1,1.6-6.4,11.775,11.775,0,0,1,3.8-4.2,14.489,14.489,0,0,1,5.4-2.3,27,27,0,0,1,6.5-.7,33.935,33.935,0,0,1,5.5.4,14.871,14.871,0,0,1,4.9,1.6,9.8,9.8,0,0,1,3.6,3.4,11.078,11.078,0,0,1,1.3,5.8v21a15,15,0,0,0,.3,3.5c.2.7.8,1.1,1.9,1.1a8.815,8.815,0,0,0,2.1-.3V272Zm-10.9-20.9a8.418,8.418,0,0,1-3.3,1.4c-1.4.3-2.8.5-4.3.7l-4.5.6a16.392,16.392,0,0,0-4.1,1.1,8.354,8.354,0,0,0-3,2.2,6.135,6.135,0,0,0-1.1,4,5.073,5.073,0,0,0,.7,2.8,4.236,4.236,0,0,0,1.7,1.8,6.257,6.257,0,0,0,2.5,1,13.854,13.854,0,0,0,3,.3,16.237,16.237,0,0,0,5.7-.9,12.2,12.2,0,0,0,3.9-2.3,8.938,8.938,0,0,0,2.2-3,7.209,7.209,0,0,0,.7-3v-6.7Z" fill="#e98c3b"/>
      <path id="Path_18" data-name="Path 18" d="M548.9,231.3v8.6h.2a17.152,17.152,0,0,1,6-7.3,15.087,15.087,0,0,1,9-2.2v7.1a19.962,19.962,0,0,0-6.9,1.1,10.919,10.919,0,0,0-4.6,3.2,12.033,12.033,0,0,0-2.5,5.2,29.3,29.3,0,0,0-.8,7v18.2h-6.7V231.4h6.3Z" fill="#e98c3b"/>
      <path id="Path_19" data-name="Path 19" d="M578.4,231.3v6.5h.2c2.8-4.9,7.2-7.4,13.3-7.4a18.393,18.393,0,0,1,6.7,1.1,10.612,10.612,0,0,1,4.3,3.1,10.911,10.911,0,0,1,2.3,4.7,27.45,27.45,0,0,1,.7,6v26.9h-6.7V244.6a8.079,8.079,0,0,0-2.2-6,8.164,8.164,0,0,0-6.1-2.2,13.987,13.987,0,0,0-5.3.9,9.447,9.447,0,0,0-3.8,2.7,11.776,11.776,0,0,0-2.3,4.1,17.016,17.016,0,0,0-.8,5.1v23.1H572V231.5h6.4Z" fill="#e98c3b"/>
      <path id="Path_20" data-name="Path 20" d="M618,224v-8.2h6.7V224Zm6.7,7.3v40.8H618V231.3Z" fill="#e98c3b"/>
      <path id="Path_21" data-name="Path 21" d="M643.1,231.3v6.5h.2c2.8-4.9,7.2-7.4,13.3-7.4a18.393,18.393,0,0,1,6.7,1.1,10.612,10.612,0,0,1,4.3,3.1,10.911,10.911,0,0,1,2.3,4.7,27.45,27.45,0,0,1,.7,6v26.9h-6.7V244.6a8.079,8.079,0,0,0-2.2-6,8.164,8.164,0,0,0-6.1-2.2,13.987,13.987,0,0,0-5.3.9,9.447,9.447,0,0,0-3.8,2.7,11.776,11.776,0,0,0-2.3,4.1,17.016,17.016,0,0,0-.8,5.1v23.1h-6.7V231.5h6.4Z" fill="#e98c3b"/>
      <path id="Path_22" data-name="Path 22" d="M712.9,283.7c-3.1,3.3-7.8,5-14.4,5a29.3,29.3,0,0,1-5.8-.6,16.017,16.017,0,0,1-5.4-2.1,12.834,12.834,0,0,1-4-3.7,10.036,10.036,0,0,1-1.7-5.6h6.7a5.54,5.54,0,0,0,1.1,3.1,10.88,10.88,0,0,0,2.6,2.1,11.32,11.32,0,0,0,3.4,1.1,22.1,22.1,0,0,0,3.5.4,13.3,13.3,0,0,0,5.6-1.1,10.679,10.679,0,0,0,3.8-3.2,13.8,13.8,0,0,0,2.2-4.9,30.15,30.15,0,0,0,.7-6.2v-2.7H711a11.556,11.556,0,0,1-5.3,5.6,15.97,15.97,0,0,1-7.5,1.8,18.136,18.136,0,0,1-8-1.7,15.854,15.854,0,0,1-5.7-4.5,18.815,18.815,0,0,1-3.4-6.6A25.585,25.585,0,0,1,680,252a33.339,33.339,0,0,1,.9-7.5,19.431,19.431,0,0,1,3.2-7,16.859,16.859,0,0,1,5.8-5.1,18.582,18.582,0,0,1,8.9-2,15.192,15.192,0,0,1,7.1,1.7,11.95,11.95,0,0,1,5.1,5.1h.1v-5.8h6.3v37.4c.1,6.6-1.5,11.6-4.5,14.9Zm-8.6-18.4a10.927,10.927,0,0,0,3.8-3.6,19.5,19.5,0,0,0,2.1-5.1,27.761,27.761,0,0,0,.7-5.7,23.28,23.28,0,0,0-.6-5.3,15.163,15.163,0,0,0-2-4.7,10.683,10.683,0,0,0-3.6-3.4,11.34,11.34,0,0,0-5.4-1.3,11.471,11.471,0,0,0-5.5,1.2,10.959,10.959,0,0,0-3.8,3.3,12.553,12.553,0,0,0-2.1,4.7,26.016,26.016,0,0,0-.7,5.6,25.736,25.736,0,0,0,.6,5.5,16.718,16.718,0,0,0,1.9,5,11.476,11.476,0,0,0,14.6,3.8Z" fill="#e98c3b"/>
      <path id="Path_23" data-name="Path 23" d="M782,223.4a16.031,16.031,0,0,0-9.6-2.7,25.018,25.018,0,0,0-4.7.5,10.667,10.667,0,0,0-4.1,1.6,7.387,7.387,0,0,0-2.8,3,9.2,9.2,0,0,0-1.1,4.6,6,6,0,0,0,1.5,4.2,9.982,9.982,0,0,0,4.1,2.6,28.427,28.427,0,0,0,5.8,1.7q3.3.6,6.6,1.5a54.588,54.588,0,0,1,6.6,1.9,21.007,21.007,0,0,1,5.8,2.9,12.991,12.991,0,0,1,4.1,4.6,16.393,16.393,0,0,1-.5,14.7,16.145,16.145,0,0,1-5.2,5.2,23.571,23.571,0,0,1-7.1,2.9,34.587,34.587,0,0,1-7.8.9,33.151,33.151,0,0,1-9-1.2,22.188,22.188,0,0,1-7.4-3.6,18.277,18.277,0,0,1-5.1-6.2,20.479,20.479,0,0,1-1.9-8.9h7.1a12.783,12.783,0,0,0,1.4,6.1,12.214,12.214,0,0,0,3.6,4.2,15.118,15.118,0,0,0,5.3,2.4,25.7,25.7,0,0,0,6.2.8,29.373,29.373,0,0,0,5.1-.5,15.6,15.6,0,0,0,4.6-1.6,8.957,8.957,0,0,0,3.3-3.1,9.612,9.612,0,0,0,1.3-5.1,7.16,7.16,0,0,0-1.5-4.7,11.8,11.8,0,0,0-4.1-3,28.191,28.191,0,0,0-5.8-1.9l-6.6-1.5c-2.2-.5-4.4-1.1-6.6-1.7a23.724,23.724,0,0,1-5.8-2.6,11.6,11.6,0,0,1-5.6-10.6,15.84,15.84,0,0,1,1.7-7.4,15.091,15.091,0,0,1,4.6-5.1,22.179,22.179,0,0,1,6.6-3,27.122,27.122,0,0,1,7.5-1,29.969,29.969,0,0,1,8.1,1,19.749,19.749,0,0,1,6.5,3.2,15.259,15.259,0,0,1,4.4,5.6,19.257,19.257,0,0,1,1.8,8h-7.1a11.093,11.093,0,0,0-4.2-8.7Z" fill="#e98c3b"/>
      <path id="Path_24" data-name="Path 24" d="M804.5,243.4a18.152,18.152,0,0,1,3.8-6.8,18.677,18.677,0,0,1,6.2-4.5,20.456,20.456,0,0,1,8.5-1.7,20.938,20.938,0,0,1,8.6,1.7,18.677,18.677,0,0,1,6.2,4.5,19.637,19.637,0,0,1,3.8,6.8,28.419,28.419,0,0,1,1.3,8.4,25.5,25.5,0,0,1-1.3,8.4,18.958,18.958,0,0,1-3.8,6.8,18.677,18.677,0,0,1-6.2,4.5,23.644,23.644,0,0,1-17.1,0,17.713,17.713,0,0,1-6.2-4.5,18.152,18.152,0,0,1-3.8-6.8,27.789,27.789,0,0,1,0-16.8Zm6.9,15a15.818,15.818,0,0,0,2.7,4.8,12.077,12.077,0,0,0,4.1,3,11.942,11.942,0,0,0,4.9,1,11.621,11.621,0,0,0,4.9-1,12.077,12.077,0,0,0,4.1-3,12.516,12.516,0,0,0,2.7-4.8,22.28,22.28,0,0,0,0-13.2,17.726,17.726,0,0,0-2.7-4.9,12.077,12.077,0,0,0-4.1-3,11.943,11.943,0,0,0-4.9-1,11.621,11.621,0,0,0-4.9,1,12.076,12.076,0,0,0-4.1,3,12.226,12.226,0,0,0-2.7,4.9,19.084,19.084,0,0,0-1,6.6A19.871,19.871,0,0,0,811.4,258.4Z" fill="#e98c3b"/>
      <path id="Path_25" data-name="Path 25" d="M859.5,215.7v56.4h-6.7V215.7Z" fill="#e98c3b"/>
      <path id="Path_26" data-name="Path 26" d="M899,272.1v-6.5h-.2a13.5,13.5,0,0,1-5.5,5.6,16.05,16.05,0,0,1-7.8,1.8,18.393,18.393,0,0,1-6.7-1.1,10.422,10.422,0,0,1-4.3-3,10.91,10.91,0,0,1-2.3-4.7,27.45,27.45,0,0,1-.7-6V231.3h6.7V259a8.079,8.079,0,0,0,2.2,6,8.164,8.164,0,0,0,6.1,2.2,13.987,13.987,0,0,0,5.3-.9,9.447,9.447,0,0,0,3.8-2.7,11.776,11.776,0,0,0,2.3-4.1,17.015,17.015,0,0,0,.8-5.1V231.3h6.7v40.8Z" fill="#e98c3b"/>
      <path id="Path_27" data-name="Path 27" d="M934.5,231.3v5.9h-8.1v25.4a9.2,9.2,0,0,0,.2,1.9,1.78,1.78,0,0,0,.8,1.1,3.33,3.33,0,0,0,1.5.5,19.338,19.338,0,0,0,2.6.1h3.1v5.9h-5.1a20.341,20.341,0,0,1-4.5-.4,7.561,7.561,0,0,1-3-1.3,5.256,5.256,0,0,1-1.7-2.7,14.658,14.658,0,0,1-.6-4.6v-26h-7v-5.9h7V219h6.7v12.2l8.1.1Z" fill="#e98c3b"/>
      <path id="Path_28" data-name="Path 28" d="M943.9,224v-8.2h6.7V224Zm6.7,7.3v40.8h-6.7V231.3Z" fill="#e98c3b"/>
      <path id="Path_29" data-name="Path 29" d="M961.7,243.4a18.152,18.152,0,0,1,3.8-6.8,18.677,18.677,0,0,1,6.2-4.5,20.456,20.456,0,0,1,8.5-1.7,20.938,20.938,0,0,1,8.6,1.7,18.677,18.677,0,0,1,6.2,4.5,19.637,19.637,0,0,1,3.8,6.8,28.419,28.419,0,0,1,1.3,8.4,25.5,25.5,0,0,1-1.3,8.4A18.958,18.958,0,0,1,995,267a18.677,18.677,0,0,1-6.2,4.5,23.644,23.644,0,0,1-17.1,0,17.713,17.713,0,0,1-6.2-4.5,18.152,18.152,0,0,1-3.8-6.8,28.418,28.418,0,0,1-1.3-8.4A25.5,25.5,0,0,1,961.7,243.4Zm6.8,15a15.818,15.818,0,0,0,2.7,4.8,12.077,12.077,0,0,0,4.1,3,11.942,11.942,0,0,0,4.9,1,11.621,11.621,0,0,0,4.9-1,12.077,12.077,0,0,0,4.1-3,12.516,12.516,0,0,0,2.7-4.8,22.28,22.28,0,0,0,0-13.2,17.726,17.726,0,0,0-2.7-4.9,12.077,12.077,0,0,0-4.1-3,11.943,11.943,0,0,0-4.9-1,11.621,11.621,0,0,0-4.9,1,12.076,12.076,0,0,0-4.1,3,12.226,12.226,0,0,0-2.7,4.9,19.084,19.084,0,0,0-1,6.6A19.871,19.871,0,0,0,968.5,258.4Z" fill="#e98c3b"/>
      <path id="Path_30" data-name="Path 30" d="M1015.8,231.3v6.5h.2c2.8-4.9,7.2-7.4,13.3-7.4a18.393,18.393,0,0,1,6.7,1.1,10.613,10.613,0,0,1,4.3,3.1,10.91,10.91,0,0,1,2.3,4.7,27.446,27.446,0,0,1,.7,6v26.9h-6.7V244.6a8.079,8.079,0,0,0-2.2-6,8.164,8.164,0,0,0-6.1-2.2,13.987,13.987,0,0,0-5.3.9,9.447,9.447,0,0,0-3.8,2.7,11.776,11.776,0,0,0-2.3,4.1,17.016,17.016,0,0,0-.8,5.1v23.1h-6.7V231.5h6.4Z" fill="#e98c3b"/>
      <path id="Path_31" data-name="Path 31" d="M1060.2,263a7.184,7.184,0,0,0,2.5,2.4,12.1,12.1,0,0,0,3.5,1.3,17.519,17.519,0,0,0,4,.4c1.1,0,2.2-.1,3.3-.2a10.8,10.8,0,0,0,3.2-.9,5,5,0,0,0,2.4-1.9,5.167,5.167,0,0,0,.9-3.1,4.374,4.374,0,0,0-2-3.9,18.547,18.547,0,0,0-4.9-2.2,54.73,54.73,0,0,0-6.4-1.5,29.941,29.941,0,0,1-6.4-1.9,13.449,13.449,0,0,1-4.9-3.4,9.051,9.051,0,0,1-2-6.2,9.958,9.958,0,0,1,1.4-5.3,10.342,10.342,0,0,1,3.6-3.6,18.12,18.12,0,0,1,4.9-2.1,24.989,24.989,0,0,1,5.4-.7,32.362,32.362,0,0,1,6.4.6,14.972,14.972,0,0,1,5.2,2.1,10.728,10.728,0,0,1,3.6,4,15.659,15.659,0,0,1,1.6,6.2h-6.7a6.761,6.761,0,0,0-1-3.3,6.3,6.3,0,0,0-2.2-2.1,9.771,9.771,0,0,0-3-1.1,18.586,18.586,0,0,0-3.3-.4c-1,0-2,.1-3,.2a11.465,11.465,0,0,0-2.8.8,6.523,6.523,0,0,0-2.1,1.6,4.237,4.237,0,0,0-.8,2.6,3.847,3.847,0,0,0,1.2,2.9,9.554,9.554,0,0,0,3.1,1.9,36.816,36.816,0,0,0,4.3,1.3c1.6.3,3.2.7,4.7,1.1,1.7.4,3.3.8,4.9,1.3a15.634,15.634,0,0,1,4.3,2.1,11.841,11.841,0,0,1,3,3.3,9.355,9.355,0,0,1,1.1,4.9,11.864,11.864,0,0,1-1.5,6.2,12.73,12.73,0,0,1-4,4,17.1,17.1,0,0,1-5.6,2.1,32.558,32.558,0,0,1-6.2.6,27.564,27.564,0,0,1-6.5-.7,18.211,18.211,0,0,1-5.5-2.3,12.189,12.189,0,0,1-3.8-4.3,15.467,15.467,0,0,1-1.6-6.4h6.7a6.306,6.306,0,0,0,1,3.6Z" fill="#e98c3b"/>
    </g>
    <path id="Path_32" data-name="Path 32" d="M372,64h2V293h-2Z" fill="#e98c3b"/>
  </g>
</svg>
